<?xml version="1.0" encoding="UTF-8"?>
<svg xmlns="http://www.w3.org/2000/svg" xmlns:xlink="http://www.w3.org/1999/xlink" width="46px" height="58px" viewBox="0 0 46 58" version="1.1">
    <title>Ícone calculadora</title>
    <desc>Criado com Sketch.</desc>
    <g id="Page-1" stroke="none" stroke-width="1" fill="none" fill-rule="evenodd">
        <g id="061---Calculator">
            <rect id="Rectangle" fill="#dffda7" x="0" y="0" width="46" height="58" rx="4"/>
            <rect id="Rectangle" fill="#6ecf42" x="4" y="4" width="38" height="12" rx="2"/>
            <rect id="Rectangle" fill="#6ecf42" x="4" y="28" width="7" height="6" rx="2"/>
            <rect id="Rectangle" fill="#6ecf42" x="4" y="38" width="7" height="6" rx="2"/>
            <rect id="Rectangle" fill="#6ecf42" x="4" y="48" width="7" height="6" rx="2"/>
            <rect id="Rectangle" fill="#6ecf42" x="14" y="28" width="7" height="6" rx="2"/>
            <rect id="Rectangle" fill="#6ecf42" x="14" y="38" width="7" height="6" rx="2"/>
            <rect id="Rectangle" fill="#6ecf42" x="14" y="48" width="7" height="6" rx="2"/>
            <rect id="Rectangle" fill="#6ecf42" x="24" y="28" width="7" height="6" rx="2"/>
            <rect id="Rectangle" fill="#6ecf42" x="24" y="38" width="7" height="6" rx="2"/>
            <rect id="Rectangle" fill="#6ecf42" x="24" y="48" width="7" height="6" rx="2"/>
            <rect id="Rectangle" fill="#31a252" x="35" y="28" width="7" height="6" rx="2"/>
            <rect id="Rectangle" fill="#31a252" x="4" y="20" width="7" height="4" rx="2"/>
            <rect id="Rectangle" fill="#31a252" x="14" y="20" width="7" height="4" rx="2"/>
            <rect id="Rectangle" fill="#31a252" x="24" y="20" width="7" height="4" rx="2"/>
            <rect id="Rectangle" fill="#31a252" x="35" y="20" width="7" height="4" rx="2"/>
            <rect id="Rectangle" fill="#31a252" x="35" y="38" width="7" height="16" rx="2"/>
            <path d="M33,12 C32.4477153,12 32,11.5522847 32,11 L32,9 C32,8.44771525 32.4477153,8 33,8 C33.5522847,8 34,8.44771525 34,9 L34,11 C34,11.5522847 33.5522847,12 33,12 Z" id="Path" fill="#31a252"/>
            <path d="M38,12 C37.4477153,12 37,11.5522847 37,11 L37,9 C37,8.44771525 37.4477153,8 38,8 C38.5522847,8 39,8.44771525 39,9 L39,11 C39,11.5522847 38.5522847,12 38,12 Z" id="Path" fill="#31a252"/>
            <path d="M36,8 L35,8 C34.4477153,8 34,7.55228475 34,7 C34,6.44771525 34.4477153,6 35,6 L36,6 C36.5522847,6 37,6.44771525 37,7 C37,7.55228475 36.5522847,8 36,8 Z" id="Path" fill="#31a252"/>
            <path d="M36,14 L35,14 C34.4477153,14 34,13.5522847 34,13 C34,12.4477153 34.4477153,12 35,12 L36,12 C36.5522847,12 37,12.4477153 37,13 C37,13.5522847 36.5522847,14 36,14 Z" id="Path" fill="#31a252"/>
        </g>
    </g>
</svg>
